<svg width="11" height="6" viewBox="0 0 11 6" fill="none" xmlns="http://www.w3.org/2000/svg">
<path fill-rule="evenodd" clip-rule="evenodd" d="M0.334253 0.218091C0.624994 -0.0726778 1.0964 -0.0726998 1.38717 0.218042L5.50004 4.33053L9.61291 0.218042C9.90368 -0.0726998 10.3751 -0.0726778 10.6658 0.218091C10.9566 0.50886 10.9565 0.980267 10.6658 1.27101L6.24543 5.69094C6.2453 5.69107 6.24517 5.6912 6.24503 5.69134C6.14728 5.78912 6.03123 5.86671 5.9035 5.91967C5.7756 5.97271 5.63849 6 5.50004 6C5.36158 6 5.22448 5.97271 5.09657 5.91967C4.96884 5.86671 4.85279 5.78912 4.75504 5.69134C4.75498 5.69128 4.75493 5.69122 4.75487 5.69116C4.75479 5.69109 4.75472 5.69101 4.75464 5.69094L0.334302 1.27101C0.0435332 0.980267 0.0435112 0.50886 0.334253 0.218091ZM5.19217 4.63837C5.19218 4.63836 5.19219 4.63834 5.19221 4.63833L5.19217 4.63837Z" fill="#14142B"/>
</svg>
