<svg width="32" height="32" viewBox="0 0 32 32" fill="none" xmlns="http://www.w3.org/2000/svg">
<path d="M15.9525 2.09703C17.894 2.09703 19.7429 2.49114 21.4265 3.19822L22.2959 1.84492C20.3543 0.987152 18.2099 0.511902 15.9525 0.511902C13.7095 0.511902 11.5767 0.984254 9.6438 1.83043L10.5161 3.18084C12.191 2.48245 14.0283 2.09703 15.9525 2.09703Z" fill="#14142B"/>
<path d="M26.3096 19.2756C24.0898 18.5569 21.7078 19.7769 20.9891 21.9967L17.5899 16.6588L16.6626 18.0991L21.447 25.5669C21.4499 25.5698 21.4528 25.5755 21.4528 25.5784C21.9628 26.3725 22.7394 27.0042 23.7073 27.3172C25.9271 28.0358 28.3091 26.8158 29.0278 24.5961C29.7494 22.3763 28.5294 19.9943 26.3096 19.2756ZM27.5615 24.1208C27.1065 25.5292 25.5938 26.3029 24.1855 25.8479C22.7771 25.393 22.0034 23.8803 22.4583 22.4719C22.9133 21.0636 24.426 20.2898 25.8343 20.7448C27.2456 21.1998 28.0164 22.7125 27.5615 24.1208Z" fill="#14142B"/>
<path d="M23.4783 2.42449L15.9874 14.0855L8.4645 2.4071C3.55841 5.06735 0.22876 10.2632 0.22876 16.2357C0.22876 24.9206 7.27057 31.9595 15.9526 31.9595C19.5488 31.9595 22.864 30.7511 25.5126 28.7197C25.3475 28.7342 25.1823 28.7458 25.0171 28.7458C24.452 28.7458 23.8869 28.656 23.3334 28.4792C23.2697 28.4589 23.2059 28.4357 23.1422 28.4126C21.0354 29.6586 18.578 30.3744 15.9526 30.3744C12.736 30.3744 9.76854 29.2993 7.39229 27.4881C7.65889 27.4563 7.92839 27.3983 8.19499 27.3114C9.16288 26.9984 9.94241 26.3696 10.4495 25.5726C10.4524 25.5698 10.4553 25.564 10.4582 25.5611L15.2339 18.1367L17.6189 14.4275L23.9536 4.57761C27.66 7.12773 30.0884 11.3963 30.0884 16.2357C30.0884 17.6267 29.8855 18.9684 29.5117 20.2377C29.9638 20.9042 30.2651 21.6663 30.3898 22.4661C31.2156 20.5564 31.6735 18.4497 31.6735 16.2357C31.6793 10.2777 28.3641 5.09343 23.4783 2.42449ZM7.72264 25.8479C6.75765 26.1609 5.7405 25.8943 5.05371 25.2423C4.88273 25.0365 4.72045 24.825 4.56107 24.6106C4.47413 24.457 4.40459 24.2947 4.34663 24.1208C3.89166 22.7125 4.6625 21.1998 6.07376 20.7448C7.48212 20.2898 8.99481 21.0607 9.44977 22.4719C9.90474 23.8803 9.13101 25.3901 7.72264 25.8479ZM10.9161 21.9967C10.1974 19.7769 7.81537 18.5598 5.59561 19.2756C4.32634 19.6842 3.38743 20.6376 2.94696 21.7938C2.2167 20.087 1.81099 18.2092 1.81099 16.2357C1.81099 11.3963 4.2423 7.12773 7.95157 4.57761L15.0571 15.5286L10.9161 21.9967ZM15.9526 15.9314C15.6338 15.9314 15.3759 15.6735 15.3759 15.3548C15.3759 15.036 15.6338 14.7781 15.9526 14.7781C16.2713 14.7781 16.5293 15.036 16.5293 15.3548C16.5293 15.6735 16.2713 15.9314 15.9526 15.9314Z" fill="#14142B"/>
<circle cx="15.9512" cy="15.3458" r="0.813231" fill="#14142B"/>
</svg>
