<svg version="1.1" id="Layer_1" xmlns="http://www.w3.org/2000/svg" xmlns:xlink="http://www.w3.org/1999/xlink" x="0px" y="0px"
	 width="100%" viewBox="0 0 1024 400" enable-background="new 0 0 1024 400" xml:space="preserve">
<path fill="#000000" opacity="1.000000" stroke="none" 
	d="
M168.525009,313.463501 
	C198.756012,319.194305 227.280228,316.057068 254.057480,301.019836 
	C255.360703,300.287994 256.733856,299.505219 258.301453,299.794373 
	C261.405609,300.366974 264.465698,301.225037 267.587097,301.644501 
	C270.671753,302.059052 273.809570,302.077972 276.884094,302.267975 
	C277.328308,304.649445 275.561127,305.094513 274.459534,305.875549 
	C206.978943,353.721222 112.485153,331.383545 73.690430,258.437744 
	C44.053982,202.712296 56.580494,133.958054 103.896416,92.067116 
	C110.545219,86.180618 117.814873,81.241806 125.197174,76.379478 
	C128.748978,74.040092 130.632126,74.346176 133.049026,78.123306 
	C152.447678,108.439583 172.072174,138.611404 191.653992,168.810303 
	C192.631393,170.317612 193.308273,172.094421 195.033401,173.152527 
	C197.102585,172.730042 197.693680,170.803558 198.630692,169.350739 
	C218.137039,139.106262 237.660980,108.872635 256.992279,78.516426 
	C259.269562,74.940384 260.911316,74.106224 264.769073,76.474754 
	C301.263733,98.881172 323.298706,130.982758 330.405426,173.284683 
	C334.274384,196.314178 331.641510,218.708435 324.093719,240.650970 
	C323.444672,242.537827 322.651001,244.377502 321.858246,246.210419 
	C321.678528,246.626038 321.222168,246.922028 319.753540,248.488983 
	C319.708496,238.268829 311.201599,232.111847 313.965393,221.109039 
	C325.627014,174.683319 306.331543,124.147827 267.503754,96.115372 
	C266.836060,95.633316 266.122620,95.214561 265.438599,94.771507 
	C263.125580,95.398354 262.464844,97.480537 261.434143,99.077637 
	C223.849426,157.316162 186.240646,215.539429 148.824326,273.886078 
	C142.724319,283.398346 134.490982,289.427216 122.807381,292.435425 
	C136.777832,303.179779 151.829346,309.579468 168.525009,313.463501 
M75.344933,168.784698 
	C70.654701,192.881302 71.915924,216.384491 81.939354,240.366379 
	C90.278053,225.587418 101.608719,218.100235 117.586319,218.638870 
	C133.487839,219.174927 144.030289,227.861420 151.171188,241.259354 
	C153.534561,240.227798 154.187256,238.405441 155.153061,236.909134 
	C164.364990,222.637405 173.361969,208.222763 182.813766,194.112503 
	C185.773743,189.693634 185.618637,186.485138 182.721146,182.103683 
	C166.553619,157.655914 150.698975,133.001312 134.717575,108.430313 
	C131.670349,103.745293 128.534317,99.118011 125.461540,94.497620 
	C103.700356,108.363571 83.232567,134.303223 75.344933,168.784698 
M127.439110,235.917496 
	C126.386261,235.425003 125.358612,234.867096 124.276627,234.450211 
	C114.678680,230.752274 103.500298,234.196365 97.715767,242.609207 
	C91.415253,251.772476 92.362335,262.549377 100.245636,271.396362 
	C106.234535,278.117371 117.991920,280.112000 126.465302,275.632294 
	C142.605209,267.099487 142.893448,245.403183 127.439110,235.917496 
z"/>
<path fill="#000000" opacity="1.000000" stroke="none" 
	d="
M419.421539,226.999420 
	C419.420807,233.163589 419.421387,238.827972 419.415741,244.492340 
	C419.414764,245.491043 419.768494,246.731613 419.312073,247.449631 
	C416.064697,252.558273 410.943695,249.250824 406.711975,249.986542 
	C404.400146,250.388474 401.862122,249.995621 401.786041,246.605606 
	C401.759888,245.440002 401.734863,244.274033 401.734528,243.108231 
	C401.726013,213.953278 401.716919,184.798340 401.718170,155.643387 
	C401.718475,148.688263 401.735291,148.687912 408.543121,148.636826 
	C409.376099,148.630569 410.209106,148.628876 411.042114,148.627258 
	C417.844635,148.613953 417.863678,148.612793 418.326294,155.315125 
	C418.430511,156.824860 418.518738,158.300705 419.780853,160.007843 
	C428.436523,150.465790 438.909851,145.462021 451.988037,146.331757 
	C464.809998,147.184448 474.889709,152.473038 481.489288,163.594757 
	C484.104401,162.448212 485.039673,160.366043 486.475800,158.822266 
	C502.230133,141.886475 531.105164,141.720917 545.250183,158.649796 
	C551.486572,166.113632 554.005493,175.170578 554.175110,184.615204 
	C554.537048,204.767532 554.265625,224.930573 554.408447,245.088120 
	C554.434875,248.822540 552.923889,250.092194 549.382324,250.090195 
	C534.163269,250.081558 536.852600,250.776306 536.740417,238.168289 
	C536.595032,221.842743 536.646423,205.514893 536.709229,189.188431 
	C536.724182,185.312180 536.127319,181.531219 535.078735,177.879028 
	C532.642273,169.393036 527.522888,163.741486 518.344849,162.069962 
	C508.461975,160.270081 500.519958,163.456711 494.424744,170.967300 
	C489.457855,177.087524 487.335144,184.510620 487.287537,192.380173 
	C487.184814,209.372696 487.252014,226.366165 487.214569,243.359192 
	C487.200562,249.711197 486.821411,250.102234 480.338837,250.065460 
	C467.910767,249.994995 469.103027,251.279678 469.037048,238.796402 
	C468.946381,221.637985 468.943298,204.479004 468.805023,187.321030 
	C468.785095,184.847427 468.400757,182.339096 467.875061,179.914032 
	C466.021759,171.364609 461.706024,164.796143 452.735474,162.455566 
	C442.763885,159.853806 434.304291,162.529144 427.548584,170.304184 
	C420.489227,178.428696 419.754517,188.472351 419.477814,198.513626 
	C419.220886,207.835724 419.421539,217.170441 419.421539,226.999420 
z"/>
<path fill="#000000" opacity="1.000000" stroke="none" 
	d="
M663.225098,242.834808 
	C663.009888,249.913666 662.924622,249.999283 656.403992,250.053986 
	C655.404785,250.062378 654.394226,249.954941 653.408142,250.068512 
	C648.531067,250.630127 646.244568,248.747421 646.666077,243.606812 
	C646.861938,241.218842 647.198364,238.604980 645.092957,235.965744 
	C640.099121,242.500061 634.243774,247.854538 626.300354,250.106216 
	C611.941406,254.176483 598.016052,253.523911 586.138977,243.625519 
	C569.478821,229.740921 573.035034,203.545929 592.496521,194.020950 
	C599.792419,190.450150 607.572754,188.790527 615.657349,188.702820 
	C625.269348,188.598526 634.883301,188.678284 644.382507,188.678284 
	C647.195251,169.359741 631.027344,156.934631 611.676147,162.806747 
	C604.727539,164.915268 599.543945,169.053619 597.333252,176.184433 
	C596.401306,179.190811 594.816895,180.531570 591.578308,180.353470 
	C587.465637,180.127304 583.331116,180.298752 578.692322,180.298752 
	C578.571899,171.366562 582.015259,164.588776 587.733337,158.988724 
	C601.776489,145.235367 628.523499,142.125565 645.452881,152.102844 
	C658.134766,159.576859 662.719116,171.580399 663.015625,185.404404 
	C663.422668,204.381424 663.186951,223.372238 663.225098,242.834808 
M594.382385,217.950958 
	C594.306702,229.524170 600.225037,235.974945 611.710449,236.837967 
	C631.157104,238.299194 646.215942,222.873260 644.532959,202.436829 
	C631.539185,202.790161 618.398071,201.000198 605.557800,204.795197 
	C599.495728,206.586853 595.713928,210.822449 594.382385,217.950958 
z"/>
<path fill="#000000" opacity="1.000000" stroke="none" 
	d="
M857.383301,243.669281 
	C839.602234,226.335022 845.738281,199.447403 868.922241,191.861649 
	C875.277832,189.782104 881.795471,188.552277 888.547546,188.641312 
	C896.543091,188.746704 904.541809,188.599060 912.538208,188.666580 
	C915.463196,188.691269 916.776489,187.718170 916.547791,184.546036 
	C915.606018,171.483215 908.528320,163.340149 896.332336,161.550110 
	C883.811646,159.712418 872.762756,165.632065 868.578491,176.779480 
	C867.558105,179.497894 866.136292,180.422913 863.462036,180.326584 
	C860.300415,180.212723 857.130310,180.226013 853.966858,180.305237 
	C850.202698,180.399490 849.445068,178.633636 850.256958,175.235809 
	C853.323242,162.403290 861.765198,154.489792 873.573303,149.821686 
	C885.482971,145.113403 897.704468,145.135559 909.796814,148.940750 
	C924.529480,153.576782 933.975342,166.456116 934.219360,182.595779 
	C934.534119,203.417114 934.279968,224.246536 934.422180,245.071457 
	C934.447205,248.740402 933.121338,250.020355 929.491455,250.123642 
	C918.497253,250.436508 918.502502,250.551102 917.858887,239.730423 
	C917.782166,238.439026 917.668945,237.149780 917.489319,234.744080 
	C909.422668,245.640488 899.564941,251.718246 886.754822,252.228592 
	C876.151550,252.651031 866.182800,250.782486 857.383301,243.669281 
M884.695374,203.231125 
	C882.734924,203.556213 880.725952,203.706757 878.822266,204.235916 
	C869.485718,206.831070 865.723328,211.908081 866.097473,221.201172 
	C866.420532,229.225082 871.333008,234.650864 879.930542,236.479462 
	C898.439819,240.416153 916.953735,224.954361 916.621826,205.939865 
	C916.574951,203.252396 915.357178,202.383041 912.976746,202.436874 
	C903.843323,202.643402 894.682556,201.807098 884.695374,203.231125 
z"/>
<path fill="#000000" opacity="1.000000" stroke="none" 
	d="
M705.384155,214.000946 
	C705.383972,224.659149 705.250671,234.820236 705.456055,244.974457 
	C705.527832,248.522369 704.674988,250.148605 700.810364,250.091278 
	C685.579102,249.865311 687.947327,251.586914 687.891968,237.532059 
	C687.784424,210.221329 687.840393,182.909882 687.861572,155.598770 
	C687.866943,148.713028 687.924255,148.712646 694.861511,148.688522 
	C696.027222,148.684464 697.208557,148.808655 698.355957,148.663177 
	C702.869873,148.090912 704.832458,149.875992 704.379028,154.531570 
	C704.124817,157.142563 704.222046,159.836990 705.577087,162.419678 
	C707.893127,161.157593 708.937988,158.753662 710.727051,157.088150 
	C722.932800,145.725510 737.308899,143.803787 752.570435,148.495209 
	C767.191223,152.989624 774.173584,164.108994 776.499817,178.803146 
	C777.500854,185.126633 777.248718,191.417160 777.281250,197.725311 
	C777.361938,213.378784 777.202087,229.033936 777.353882,244.686325 
	C777.390808,248.495590 776.236328,250.128571 772.272583,250.070007 
	C757.194336,249.847198 759.859863,251.557434 759.721375,237.749954 
	C759.571045,222.763626 759.655273,207.774551 759.701538,192.786880 
	C759.715515,188.265396 759.326416,183.756943 758.254700,179.418243 
	C754.047058,162.385315 733.259033,155.684647 718.531433,166.528549 
	C710.949097,172.111359 707.401428,179.899460 706.257324,189.074966 
	C705.243713,197.204102 705.417969,205.350540 705.384155,214.000946 
z"/>
<path fill="#000000" opacity="1.000000" stroke="none" 
	d="
M203.224609,214.675735 
	C200.953369,211.888840 200.680344,209.486816 202.826645,206.767410 
	C204.948837,204.078552 206.211975,200.727585 209.638489,197.792587 
	C219.153595,212.564331 228.470825,227.028900 238.116165,242.002838 
	C239.803177,239.330093 241.207520,236.999237 242.713837,234.736252 
	C251.083374,222.162628 267.197601,215.755432 281.559418,219.260727 
	C297.490479,223.149048 308.356995,235.013138 310.414734,250.612198 
	C313.070557,270.745178 300.556946,285.229004 286.397247,290.472961 
	C270.556824,296.339355 252.861893,291.219513 243.200378,276.711029 
	C229.634415,256.339264 216.656937,235.575592 203.224609,214.675735 
M251.355057,259.864685 
	C252.081482,261.887451 252.609161,264.010193 253.568237,265.915894 
	C258.054810,274.830688 267.796478,279.479584 277.821350,277.627441 
	C287.336731,275.869415 294.747528,268.331451 295.802063,259.338135 
	C297.136292,247.959244 292.461090,238.935379 282.766327,234.900085 
	C266.441956,228.105377 248.837418,240.462677 251.355057,259.864685 
z"/>
<path fill="#000000" opacity="1.000000" stroke="none" 
	d="
M822.580261,151.107391 
	C822.557129,187.168121 822.480042,222.805466 822.398560,258.442810 
	C822.390564,261.939941 822.405579,265.438263 822.322449,268.933929 
	C821.999817,282.504852 815.072998,290.718140 801.647827,292.977966 
	C797.246948,293.718719 792.728699,293.755432 788.218811,293.773346 
	C783.649292,293.791504 782.369385,291.835297 782.903931,287.713989 
	C783.116577,286.074493 782.996094,284.387146 782.971069,282.722443 
	C782.927612,279.827667 784.231689,278.737885 787.206604,278.571564 
	C803.404297,277.666016 804.768921,276.117889 804.769348,259.721375 
	C804.770386,224.914307 804.765808,190.107254 804.785034,155.300186 
	C804.788696,148.713867 804.856018,148.382431 811.505737,148.808258 
	C815.168579,149.042831 819.487427,146.544266 822.580261,151.107391 
z"/>
<path fill="#000000" opacity="1.000000" stroke="none" 
	d="
M151.225952,80.350418 
	C149.234467,81.139229 147.571198,81.628204 146.386230,79.834045 
	C144.210785,76.540207 141.602631,73.484695 140.315689,69.722939 
	C159.418915,53.810833 227.204437,53.819328 249.897675,69.741676 
	C248.778366,73.572304 246.247467,76.663963 243.923294,79.830353 
	C242.022293,82.420212 239.666000,80.802025 237.578140,80.026581 
	C223.217224,74.692879 208.370026,72.096245 193.076141,72.345772 
	C178.819931,72.578377 164.952850,75.115242 151.225952,80.350418 
z"/>
<path fill="#000000" opacity="1.000000" stroke="none" 
	d="
M813.165771,104.743454 
	C821.329956,105.459084 825.372253,109.202904 825.694031,115.940025 
	C825.976562,121.853683 821.398682,127.355156 815.510559,128.177963 
	C809.609558,129.002579 803.994934,125.207657 802.285889,119.239357 
	C800.325867,112.394722 804.290161,106.908157 813.165771,104.743454 
z"/>
</svg>